<svg width="252" height="46" viewBox="0 0 252 46" fill="none" xmlns="http://www.w3.org/2000/svg">
<path d="M23.119 0C33.7784 0 42.7516 7.17668 45.4254 16.9379C45.8006 18.3076 44.6125 19.5271 43.2027 19.3559L29.927 17.7441C29.0898 17.6423 28.3759 17.0923 28.0664 16.3118L25.2588 9.23069C24.4931 7.29918 21.7457 7.29918 20.98 9.23069L18.0369 16.6544C17.8031 17.2441 17.3336 17.7111 16.7409 17.9437L9.27861 20.8716C7.33708 21.6334 7.33708 24.3666 9.27861 25.1284L16.7409 28.0563C17.3336 28.2889 17.8031 28.7559 18.0369 29.3456L20.98 36.7693C21.7458 38.7008 24.4931 38.7008 25.2588 36.7693L28.0664 29.6875C28.3759 28.9071 29.0899 28.3577 29.927 28.2559L43.2027 26.6435C44.6125 26.4722 45.8006 27.6917 45.4254 29.0614C42.7518 38.8229 33.7785 46 23.119 46C10.3507 45.9999 0 35.702 0 22.9996C0.000130396 10.2973 10.3508 0.00012973 23.119 0Z" fill="white"/>
<path d="M71.392 37.8645C68.9387 37.8645 66.8073 37.3432 64.998 36.3005C63.1887 35.2272 61.778 33.7245 60.766 31.7925C59.7847 29.8605 59.294 27.6065 59.294 25.0305C59.294 22.4545 59.7847 20.2158 60.766 18.3145C61.778 16.3825 63.1887 14.8798 64.998 13.8065C66.8073 12.7332 68.9387 12.1965 71.392 12.1965C73.4773 12.1965 75.3327 12.5645 76.958 13.3005C78.5833 14.0365 79.902 15.0945 80.914 16.4745C81.9567 17.8238 82.6007 19.4798 82.846 21.4425L76.774 21.7645C76.5287 20.2005 75.9153 19.0198 74.934 18.2225C73.9833 17.3945 72.8027 16.9805 71.392 16.9805C69.4907 16.9805 68.0187 17.7012 66.976 19.1425C65.9333 20.5532 65.412 22.5158 65.412 25.0305C65.412 27.5758 65.9333 29.5538 66.976 30.9645C68.0187 32.3752 69.4907 33.0805 71.392 33.0805C72.8333 33.0805 74.0293 32.6665 74.98 31.8385C75.9613 31.0105 76.5593 29.7225 76.774 27.9745L82.846 28.2505C82.6007 30.2132 81.972 31.9152 80.96 33.3565C79.948 34.7978 78.6293 35.9172 77.004 36.7145C75.3787 37.4812 73.508 37.8645 71.392 37.8645ZM94.4438 37.8645C91.8678 37.8645 89.7978 37.2818 88.2338 36.1165C86.6698 34.9205 85.8878 33.2645 85.8878 31.1485C85.8878 29.0325 86.5471 27.3765 87.8658 26.1805C89.1844 24.9845 91.1931 24.1258 93.8918 23.6045L102.034 21.9945C102.034 20.2465 101.635 18.9432 100.838 18.0845C100.04 17.1952 98.8598 16.7505 97.2958 16.7505C95.8851 16.7505 94.7658 17.0878 93.9378 17.7625C93.1404 18.4065 92.5884 19.3418 92.2818 20.5685L86.3018 20.2925C86.7924 17.6858 87.9884 15.6925 89.8898 14.3125C91.7911 12.9018 94.2598 12.1965 97.2958 12.1965C100.792 12.1965 103.429 13.0858 105.208 14.8645C107.017 16.6125 107.922 19.1272 107.922 22.4085V31.3325C107.922 31.9765 108.029 32.4212 108.244 32.6665C108.489 32.9118 108.842 33.0345 109.302 33.0345H110.084V37.3125C109.9 37.3738 109.593 37.4198 109.164 37.4505C108.765 37.4812 108.351 37.4965 107.922 37.4965C106.91 37.4965 106.005 37.3432 105.208 37.0365C104.41 36.6992 103.797 36.1318 103.368 35.3345C102.938 34.5065 102.724 33.3872 102.724 31.9765L103.23 32.3445C102.984 33.4178 102.448 34.3838 101.62 35.2425C100.822 36.0705 99.8104 36.7145 98.5838 37.1745C97.3571 37.6345 95.9771 37.8645 94.4438 37.8645ZM95.6398 33.5865C96.9584 33.5865 98.0931 33.3258 99.0438 32.8045C99.9944 32.2832 100.73 31.5625 101.252 30.6425C101.773 29.7225 102.034 28.6338 102.034 27.3765V25.9965L95.6858 27.2845C94.3671 27.5605 93.4164 27.9745 92.8338 28.5265C92.2818 29.0478 92.0058 29.7378 92.0058 30.5965C92.0058 31.5472 92.3124 32.2832 92.9258 32.8045C93.5698 33.3258 94.4744 33.5865 95.6398 33.5865ZM119.436 37.3125C117.657 37.3125 116.231 36.8525 115.158 35.9325C114.085 35.0125 113.548 33.5405 113.548 31.5165V4.65249H119.436V30.9185C119.436 31.5318 119.589 31.9918 119.896 32.2985C120.233 32.6052 120.693 32.7585 121.276 32.7585H123.07V37.3125H119.436ZM126.845 37.3125V12.7485H132.733V37.3125H126.845ZM126.753 9.48249V4.23849H132.871V9.48249H126.753ZM148.731 37.8645C146.309 37.8645 144.269 37.5118 142.613 36.8065C140.988 36.1012 139.731 35.1198 138.841 33.8625C137.952 32.6052 137.446 31.1792 137.323 29.5845L143.349 29.3085C143.564 30.5965 144.101 31.5932 144.959 32.2985C145.818 33.0038 147.091 33.3565 148.777 33.3565C150.157 33.3565 151.231 33.1418 151.997 32.7125C152.795 32.2525 153.193 31.5472 153.193 30.5965C153.193 30.0445 153.055 29.5845 152.779 29.2165C152.503 28.8485 151.982 28.5265 151.215 28.2505C150.449 27.9745 149.314 27.6985 147.811 27.4225C145.297 26.9932 143.319 26.4718 141.877 25.8585C140.436 25.2145 139.409 24.4172 138.795 23.4665C138.213 22.5158 137.921 21.3352 137.921 19.9245C137.921 17.6245 138.795 15.7692 140.543 14.3585C142.322 12.9172 144.913 12.1965 148.317 12.1965C150.525 12.1965 152.381 12.5645 153.883 13.3005C155.386 14.0058 156.551 14.9872 157.379 16.2445C158.238 17.4712 158.775 18.8818 158.989 20.4765L153.055 20.7525C152.902 19.9245 152.626 19.2038 152.227 18.5905C151.829 17.9772 151.292 17.5172 150.617 17.2105C149.943 16.8732 149.145 16.7045 148.225 16.7045C146.845 16.7045 145.803 16.9805 145.097 17.5325C144.392 18.0845 144.039 18.8205 144.039 19.7405C144.039 20.3845 144.193 20.9212 144.499 21.3505C144.837 21.7798 145.373 22.1325 146.109 22.4085C146.845 22.6538 147.827 22.8838 149.053 23.0985C151.629 23.4972 153.653 24.0185 155.125 24.6625C156.628 25.2758 157.686 26.0732 158.299 27.0545C158.943 28.0052 159.265 29.1552 159.265 30.5045C159.265 32.0685 158.821 33.4025 157.931 34.5065C157.073 35.6105 155.846 36.4538 154.251 37.0365C152.687 37.5885 150.847 37.8645 148.731 37.8645ZM172.851 37.3125C170.398 37.3125 168.588 36.7452 167.423 35.6105C166.288 34.4758 165.721 32.6972 165.721 30.2745V6.99849H171.609V29.7225C171.609 30.8572 171.854 31.6545 172.345 32.1145C172.836 32.5438 173.602 32.7585 174.645 32.7585H178.095V37.3125H172.851ZM161.857 17.3025V12.7485H178.095V17.3025H161.857ZM189.409 37.8645C186.833 37.8645 184.763 37.2818 183.199 36.1165C181.635 34.9205 180.853 33.2645 180.853 31.1485C180.853 29.0325 181.512 27.3765 182.831 26.1805C184.149 24.9845 186.158 24.1258 188.857 23.6045L196.999 21.9945C196.999 20.2465 196.6 18.9432 195.803 18.0845C195.005 17.1952 193.825 16.7505 192.261 16.7505C190.85 16.7505 189.731 17.0878 188.903 17.7625C188.105 18.4065 187.553 19.3418 187.247 20.5685L181.267 20.2925C181.757 17.6858 182.953 15.6925 184.855 14.3125C186.756 12.9018 189.225 12.1965 192.261 12.1965C195.757 12.1965 198.394 13.0858 200.173 14.8645C201.982 16.6125 202.887 19.1272 202.887 22.4085V31.3325C202.887 31.9765 202.994 32.4212 203.209 32.6665C203.454 32.9118 203.807 33.0345 204.267 33.0345H205.049V37.3125C204.865 37.3738 204.558 37.4198 204.129 37.4505C203.73 37.4812 203.316 37.4965 202.887 37.4965C201.875 37.4965 200.97 37.3432 200.173 37.0365C199.375 36.6992 198.762 36.1318 198.333 35.3345C197.903 34.5065 197.689 33.3872 197.689 31.9765L198.195 32.3445C197.949 33.4178 197.413 34.3838 196.585 35.2425C195.787 36.0705 194.775 36.7145 193.549 37.1745C192.322 37.6345 190.942 37.8645 189.409 37.8645ZM190.605 33.5865C191.923 33.5865 193.058 33.3258 194.009 32.8045C194.959 32.2832 195.695 31.5625 196.217 30.6425C196.738 29.7225 196.999 28.6338 196.999 27.3765V25.9965L190.651 27.2845C189.332 27.5605 188.381 27.9745 187.799 28.5265C187.247 29.0478 186.971 29.7378 186.971 30.5965C186.971 31.5472 187.277 32.2832 187.891 32.8045C188.535 33.3258 189.439 33.5865 190.605 33.5865ZM208.872 37.3125V12.7485H214.208L214.438 19.6485L213.748 19.3725C213.994 17.6552 214.5 16.2752 215.266 15.2325C216.033 14.1898 216.968 13.4232 218.072 12.9325C219.176 12.4418 220.388 12.1965 221.706 12.1965C223.516 12.1965 225.034 12.5952 226.26 13.3925C227.518 14.1898 228.468 15.2938 229.112 16.7045C229.756 18.0845 230.078 19.6945 230.078 21.5345V37.3125H224.19V23.4205C224.19 22.0405 224.052 20.8752 223.776 19.9245C223.5 18.9738 223.04 18.2532 222.396 17.7625C221.783 17.2412 220.955 16.9805 219.912 16.9805C218.348 16.9805 217.091 17.5325 216.14 18.6365C215.22 19.7405 214.76 21.3352 214.76 23.4205V37.3125H208.872ZM244.636 37.3125C242.183 37.3125 240.374 36.7452 239.208 35.6105C238.074 34.4758 237.506 32.6972 237.506 30.2745V6.99849H243.394V29.7225C243.394 30.8572 243.64 31.6545 244.13 32.1145C244.621 32.5438 245.388 32.7585 246.43 32.7585H249.88V37.3125H244.636ZM233.642 17.3025V12.7485H249.88V17.3025H233.642Z" fill="white"/>
</svg>
